<svg id="Layer_1" xmlns="http://www.w3.org/2000/svg" viewBox="0 0 220.8 115.8"><path fill-rule="evenodd" clip-rule="evenodd" fill="#FFF" d="M140.1 17.3c-20.2 3.7-38.3 2.4-56-1.7l-.5-9.3c-.1-1.6 12.7-4.1 26.7-4.2 14.8-.1 28.3.7 29.7 2.6-16.5 2.2-34.3 3.1-53.2 1-.4 0-.2.5-.7.5 17.4 3.2 34.8 2.6 53.1.4 2.9.7.9 10.2.9 10.7"></path><path fill-rule="evenodd" clip-rule="evenodd" fill="#FFCB05" d="M84 18.7c19.7 3.6 37.2 5.1 55.7-.4 1.7 4.4 1.1 8.9.6 13.6-.4 4.1-2.4 8.7-2.6 12.7l-4.2 58.3c-13.2 4.7-27.8 5.1-42.8.6l-5.4-59.6c-.3-3.4-1.8-6.3-2.4-12-.6-5.3 1-6.7 1.1-13.2"></path><path fill-rule="evenodd" clip-rule="evenodd" fill="#A25641" d="M133.1 105.4c-14.6 3.7-28.7 4.6-42.4-.9l-.1.2c.1 2 .6 3.4 1.4 3.8 8.1 6.7 29.9 7 39.2.9 1.1-.9 1.6-2.3 1.9-4M84 18.7c19.7 3.6 37.2 5.1 55.7-.4 1.7 4.4 1.1 8.9.6 13.6-.4 4.1-2.4 8.7-2.6 12.7l-4.2 58.3c-13.2 4.7-27.8 5.1-42.8.6l-5.4-59.6c-.3-3.4-1.8-6.3-2.4-12-.6-5.3 1-6.7 1.1-13.2zm56.4-3c-.1.4-.5 1.1-1.2 1.2-20.7 4.7-38.8 4.5-55.2-1.3l-.5-9.3c-.1-1.6 12.7-4.1 26.7-4.2 14.8-.1 28.3.7 29.7 2.6-16.5 2.2-34.3 3.1-53.2 1-.4 0-.2.5-.7.5 17.4 3.2 34.8 2.6 53.1.4 3 .7 1.3 8.6 1.3 9.1zm-50.7 94.6c-.9-.4-1.4-1.9-1.5-3.9l-4.6-62.2c-.3-3.5-2.9-7.7-3.5-13.7-.6-5.6 1.7-6.9 1.2-14L80.3 4C80.2 2.4 95 .1 110 0c16.7-.1 33.4 1.6 33.3 3.6l-1.1 16.5c-.2 3.4 1.3 6.9.9 10.4-.4 4.2-2.7 9.1-3 13.1l-4.8 62.2c-.1 2.2-.7 4-2.3 5.1-10.1 6.7-34.7 6.6-43.3-.6z"></path><path fill-rule="evenodd" clip-rule="evenodd" fill="#E6E7E8" d="M108.2 17.6c9 1.3 27.3-1.1 30.2-2.5.7-3.6.7-6.1.2-7.1-.9 6.2-14.8 9.5-30.4 9.6"></path><path fill-rule="evenodd" clip-rule="evenodd" fill="#F4AA1C" d="M126.5 24.7c2.3 3.9 2.9 16.5 1 20.2-.5 17.8 1 48.6 0 50.6-1.5 3.1-9.6 5.8-21.2 6.9 6.6 2.1 20.4 1.3 24.5-4.2 1.1-2.3-.4-34.7.6-53.7 2.7-2.8 8.1-17.8 4.3-21.9-2.1.9-5.4 1.9-9.2 2.1"></path><path fill-rule="evenodd" clip-rule="evenodd" fill="#FFF" d="M91.2 42.8c1.5 17.3 4.4 23.3 5.2 49.8 1 1.3 2.4 2.1 4.8 2.1-1.7-17.2-1.7-34.4-3.4-51.6-2.4.1-4.7.1-6.6-.3m-.5-19.3c-3.4 3.6-3.4 10.9-.4 16.9 1.7.5 4.2.4 6.7.3-1.8-5.3-1.9-10.8.9-15.9-2.5 0-5-.4-7.2-1.3z"></path><path fill-rule="evenodd" clip-rule="evenodd" fill="#FFE5A3" d="M90.7 9.3c2.1.7 6 .8 8.4.8-.6 1.8-.6 4.2-.3 5.4-2.4 0-5.1-.3-7.1-.8-1.2-1.7-2.1-3.6-1-5.4"></path><path fill-rule="evenodd" clip-rule="evenodd" fill="#8F4C29" d="M17 57.7l1 .4 1 .4 1 .5 1 .5.9.5 1 .6.9.5 1 .5.9.6 1 .6.9.6.8.6 1 .6.8.7.9.7.8.8-.1.4-.9-.5-.9-.5-1-.6-.9-.5-1-.6-1-.6-.9-.5-1-.6-.9-.5-.9-.6-1-.6-1-.6-.8-.7-.9-.6-.9-.6-.9-.6zM22.4 66.5l1.1.4 1 .5 1 .5 1.1.5 1.1.5 1 .5 1.1.5 1 .6 1.1.5 1 .6 1 .6 1 .6 1 .7.8.7 1 .7.8.9-1.1-.4-.9-.4-1-.5-1-.5-1-.5-.9-.5-1-.6-1-.5-1-.7-.8-.5-1-.6-1-.6-.9-.6-1-.5-.9-.5-1-.6zM12.4 49.7L28 58.4l.1.1v.1l.1.2h.1v.1l.1.1.1.1v.2l.1.1.1.1V59.8l-.1.1-1-.4-1-.5-1-.6-.9-.5-1-.5-1.1-.6-1-.6-.9-.5-1-.7-.9-.6-1-.5-1-.6-.9-.6-1-.6-1-.6-1-.4v-.2l-.1-.1v-.1l-.1-.1-.1-.2-.1-.1v-.1l-.1-.1v-.2l-.1-.1zM8.5 41.6l17.6 10.1.8 1.5-.5.3-1.3-.7-1.2-.7-1.2-.7-1.2-.6-1.2-.9-1.2-.6-1.1-.8-1.2-.7-1.1-.7-1.3-.8-1.1-.7-1.2-.8-1.1-.7-1.1-.8-1.2-.8-1.1-.7zM14.7 39.8l10.9 6 .4 1.1h-.2V47.2h-.1v.1h-.1v-.1h-.1l-.8-.4-.7-.4-.7-.4-.8-.5-.7-.4-.8-.4-.7-.4-.8-.5-.7-.4-.7-.4-.7-.5-.7-.5-.7-.4-.6-.5-.6-.5-.6-.5zM37.8 72l.3-.2.3-.2.3-.2.5-.1.3-.1H41.3l.4.1.5.1.4.1.5.1.4.1.4.1.4.1.1.3v.1l.1.3v.2l-.2.2v.3l-.1.2v.2l-.1.1-.2.3-.1.2v.2l-.1.2-.2.2v.2l-.1.2H43l-.4-.2-.4-.1-.4-.2-.4-.1-.3-.2-.3-.2-.4-.2-.3-.3-.4-.2-.3-.3-.3-.3-.4-.2-.3-.3-.3-.3zM33.4 64.6l.4-.3.4-.2.4-.1h.4l.5-.1.5.2.4-.1.5.2.6.1.4.1.5.2.5.2.3.3.6.2.3.2.3.2.4.1.2.2.2.1.1.3.1.2v.2l-.1.2v.3l-.1.2-.1.3v.2l-.1.2-.1.3-.1.3-.1.2-.1.4-.5-.3-.6-.1-.5-.2-.5-.2-.6-.2-.5-.2-.5-.2-.5-.3-.4-.3-.4-.3-.5-.4-.4-.3-.3-.4-.4-.5-.3-.4zM30 57.5l.5-.5.6-.2.5-.1h1l.5.2.6.2.5.3.5.3.5.3.5.4.5.4.5.4.5.3.5.2.4.4.2.1h.1l.1.1V60.6l.1.1v.5l.1.1-.1.2v.2l-.1.2-.1.1-.7.2h-1.2l-.6-.2-.7-.1-.5-.2-.6-.3-.5-.3-.5-.4-.5-.4-.5-.5-.5-.5-.3-.4-.5-.5-.4-.5zM15.5 30.1l.3.4.4.5.4.6.4.5.3.4.4.6.3.5.3.5.3.5.4.6.3.5.2.5.3.6.4.6.2.5.3.7-.6-.3-.5-.4-.4-.4-.5-.5-.5-.4-.4-.4-.3-.6-.4-.6-.3-.5-.3-.5-.3-.7-.3-.6-.2-.5-.3-.7-.2-.6-.2-.5zM29 51l.4-.1h1.3l.5.1h.4l.5.1.4.2.5.1.4.2.4.2.4.2.4.4.2.3.2.5.3.4v.4l-.1.1v.1l-.1.1-.1.1h-.1l-.2.2-.1-.1h-.1l-.2.1-.1.1-.1-.1-.2.1-.1.1-.1.1-.3-.2-.4-.2-.3-.3-.4-.1-.4-.2-.3-.3-.4-.1-.3-.2-.4-.2-.2-.3-.3-.3-.2-.2-.3-.3-.2-.3-.2-.4zM48.2 76.4l.2-.3.2-.1.2-.1.1-.1.2.1.1.1.2.1.1.1.2.1v.1l.2.1v.1l.1.2h.1l.2.1.1.1.1.3.1.1.1.1v.4l.2.2.1.2V78.6l.1.3.1.1.1.1.1.3.2.2h-.2l-.2.1-.3.2-.2.1-.3.2-.2.1-.3.3-.2.1-.2.2-.2.1-.3.1h-.7L48 81l-.2-.1-.3-.3-.1-.3-.2-.4-.3-.3-.1-.4-.1-.4-.1-.3-.1-.3-.1-.4.1-.3.1-.3.1-.2.3-.2.3-.2.4-.2zM29.4 43.7l.2.1.2.1.2.1.2.1.2.1.1.2.3.1.1.2.2.1.1.1.1.2.2.2.1.2.1.3v.7l-.1.4v.2l-.1.3-.2.3-.1.1-.2.3-.2.2-.1.1-.2.1h-.3l-.2.1h-.3l-.2-.1-.3-.1-.3-.2.1-.3v-.3l-.1-.3-.1-.3-.2-.3v-.3l-.2-.4v-.3l-.1-.2V44.6l.3-.3.1-.3.3-.1zM47.8 70.8l1-.7.2.2.2.2.1.1v.3l.1.2v.8l-.1.2-.1.3-.1.2-.1.2-.2.3-.1.2-.2.2-.3.2-1.5 1-.1-.3-.2-.2-.1-.4v-.5l.2-.2v-.3l.2-.2.1-.2.2-.3.1-.2.2-.2.1-.2.2-.2.1-.4zM13.6 20.3l.1-.2.1-.1.2-.1.1.1.1-.1.2.1.2.1.2.1.1.1.2.2.2.2.1.2.2.2.1.3.1.2.1.3L27 40.1l-.2.1-.1.1H25.9l-.1-.1-.2-.1-.1-.1-.1-.1h-.1l-.1-.1-.2-.1zM46.6 63l.1.3.3.4.1.4.1.4v.4l.1.4v1.4l-.1.4-.1.6-.1.4-.2.5-.2.3-.1.5-.3.4H46l-.1.1h-.8l-.3-.1h-.2l-.2-.1-.3-.1H44l-.2-.1-.1-.1-.2-.3-.1-.1v-.1l.1-.5.1-.5.1-.4.2-.4.1-.3.2-.4.1-.4.2-.4.3-.4.2-.3.2-.4.2-.3.3-.3.3-.3.3-.3zM43.8 56.8l.1.4.1.4.1.4.1.5v2.2l-.1.5-.1.4-.1.5-.1.4-.2.4-.2.5-.2.3-.2.2-.2.3h-.1l-.2.1h-.2l-.2-.1-.1-.1-.1-.1-.2-.1-.1-.1-.1-.1-.2-.1-.2-.1-.1-.1H40.7V62l.1-.5.1-.5.1-.5.2-.5.1-.4.3-.4.2-.4.2-.4.4-.4.3-.4.4-.2.3-.3zM39.1 50.9l.3.3.2.3.3.4.2.3.1.4.2.4.1.4.1.4v2.1l-.1.4-.1.3-.1.5-.2.2-.2.2h-.2l-.1.1h-.3l-.2-.1-.1-.1h-.3v-.1l-.2-.2-.2-.1-.2-.2-.2-.1-.1-.1h-.4v-2l.1-.4v-.5l.1-.3.1-.5.1-.2.1-.4.2-.4.2-.2.2-.4.3-.2zM34.2 46.1l.2-.1.2.1.2.2.3.2.1.2.2.3.1.2.2.3.1.2.1.4.1.2v.4l.1.2.1.3-.1.4-.1.2.1.4h-.9l-.3-.2-.4-.1-.2-.1-.3-.4-.1-.2-.2-.3-.1-.4-.1-.3v-.8l.1-.4.2-.3.1-.3zM31.2 41l.1-.9v-.8l.1-.8V36.8l-.1-.8V31.1l.2-.8v-.8l.2-.8.2-.7v.9l.1.8.1.9.1.9.1 1v.9l.1.8v1.9l.1.9v3.7l.1.8-.1 1H32.2l-.1-.1-.1-.1h-.1l-.1-.1-.1-.2-.1-.1v-.1l-.1-.1-.1-.1v-.1l-.1-.2v-.2zM22.6 25.9l.7-.4.4.5.1.4.4.5.3.5.5.5.3.5.3.5.3.5.3.5.3.5.3.4.1.6.2.5.1.6v.5l-.1.7-.2-.6-.3-.5-.3-.4-.3-.5-.3-.5-.3-.5-.3-.4-.3-.5-.4-.5-.3-.5-.2-.4-.3-.6-.2-.4-.3-.5-.2-.5zM50 61.5l-.2-13.6.8 1.4.6 17.5-.7.4-.4-.5-.2-.2-.2-.4-.1-.3.1-.5v-.7l.1-.3.1-.4.1-.4.2-.2v-1.5zM35.8 42.8l-.1-1.1v-5.5l.1-1.2v-3.2l.1-1.1.1-1.1V26.3l.1-1 .3 1 .2 1.1.2 1.1.1 1.2.1 1.1.2 1.2v4.8l.1 1.3v2.4l.2 1.3.1 1.2.1 1.2-.7 1.1zM40.7 32.2l.2 1.1.2 1.1.1 1.1.1 1.1.1 1.1v1l.1 1.2v5.6l.1 1.2v1.1l.1 1.1.2 1.2-.5-.5-.3-.6-.3-.4-.2-.7-.2-.5-.1-.7v-.6l-.1-.7v-.7l.1-.7-.1-.7.1-.7v-6.1l-.1-.5.2-.4-.1-.5.1-.4v-.5l.1-.5v-.5l.1-.4zM45.4 40.4l.3.9.2 1 .2 1.1.1 1 .1 1.1.1 1 .1 1.2v2.1l-.1 1.2v1l-.1 1.1v1l-.1 1.1-.1 1-.2 1-.1-1.1-.2-1.1-.2-1-.1-1-.1-1v-1.1l-.2-1.1v-2l-.1-1.1.1-1.1.1-1v-1.1l.1-1 .1-1.1zM207.2 57.7l-1 .4-1 .4-1 .5-1 .5-.9.5-1 .6-.9.5-.9.5-1 .6-.9.6-.9.6-.9.6-1 .6-.8.7-.9.7-.8.8.1.4.9-.5 1-.5.9-.6.9-.5 1-.6 1-.6.9-.5 1-.6.9-.5 1-.6.9-.6 1-.6.8-.7 1-.6.9-.6.8-.6zM201.8 66.5l-1.1.4-1 .5-1 .5-1.1.5-1 .5-1.1.5-1 .5-1.1.6-1 .5-1.1.6-.9.6-1 .6-1 .7-.9.7-.9.7-.8.9 1-.4.9-.4 1-.5 1-.5 1-.5 1-.5.9-.6 1-.5 1-.7.9-.5 1-.6.9-.6.9-.6 1-.5.9-.5 1.1-.6zM211.8 49.7l-15.6 8.7v.1h-.1v.1l-.1.2-.1.1v.1l-.1.1-.1.1v.1l-.1.1-.1.1v.2l.1.1v.1l1.1-.4.9-.5 1-.6 1-.5 1-.5 1-.6 1-.6.9-.5 1-.7 1-.6.9-.5 1-.6 1-.6 1-.6.9-.6 1-.4v-.2l.1-.1v-.1h.1v-.1l.1-.2h.1l.1-.1-.1-.1h.1V49.9l.1-.1zM215.8 41.6l-17.7 10.1-.7 1.5.5.3 1.2-.7 1.2-.7 1.2-.7 1.2-.6 1.2-.9 1.2-.6 1.2-.8 1.1-.7 1.2-.7 1.2-.8 1.2-.7 1.1-.8 1.2-.7 1-.8 1.2-.8 1.1-.7zM209.6 39.8l-10.9 6-.4 1.1h.1v.1h.1V47.3h.1l.1-.1h.1l.7-.4.8-.4.7-.4.7-.5.8-.4.7-.4.7-.4.8-.5.7-.4.7-.4.7-.5.7-.5.7-.4.6-.5.7-.5.6-.5zM186.4 72l-.3-.2-.3-.2-.3-.2-.4-.1-.4-.1H183l-.5.1-.5.1-.4.1-.4.1-.4.1-.5.1-.3.1-.2.3v.1l-.1.3v.2l.2.2v.3l.1.2.1.2.1.1.1.3.1.2v.2l.1.2.2.2.1.2v.2h.4l.4-.2.4-.1.4-.2.4-.1.3-.2.3-.2.5-.2.2-.3.4-.2.3-.3.3-.3.4-.2.3-.3.3-.3zM190.8 64.6l-.4-.3-.4-.2-.4-.1h-.4l-.5-.1-.4.2-.5-.1-.5.2-.5.1-.4.1-.5.2-.6.2-.3.3-.5.2-.3.2-.4.2-.4.1-.2.2-.2.1v.3l-.2.2v.2l.1.2v.3l.1.2.1.3.1.2v.2l.2.3.1.3v.2l.1.4.6-.3.5-.1.6-.2.5-.2.5-.2.5-.2.5-.2.5-.3.4-.3.4-.3.5-.4.4-.3.3-.4.4-.5.3-.4zM194.2 57.5l-.5-.5-.5-.2-.6-.1h-1l-.5.2-.6.2-.5.3-.5.3-.4.3-.6.4-.5.4-.4.4-.5.3-.6.2-.4.4-.1.1h-.2v.1l-.1.1v.2l-.1.1v.8l.1.2v.2l.1.1.7.2H187.8l.6-.2.6-.1.6-.2.5-.3.5-.3.5-.4.6-.4.5-.5.4-.5.4-.4.5-.5.4-.5zM208.8 30.1l-.4.4-.4.5-.3.6-.4.5-.4.4-.4.6-.3.5-.3.5-.3.5-.3.6-.4.5-.2.5-.3.6-.3.6-.3.5-.3.7.6-.3.5-.4.5-.4.5-.5.4-.4.4-.4.4-.6.3-.6.3-.5.4-.5.3-.7.2-.6.3-.5.2-.7.3-.6.2-.5zM195.2 51l-.4-.1h-1.3l-.5.1h-.4l-.5.1-.4.2-.4.1-.5.2-.4.2-.3.2-.4.4-.2.3-.3.5-.3.4v.2l.1.2v.1l.1.1.1.1v.1h.1l.2.2.1-.1h.1l.2.1.1.1.1-.1.2.1.2.1v.1l.3-.2.4-.2.4-.3.4-.1.3-.2.4-.3.3-.1.4-.2.3-.2.3-.3.2-.3.3-.2.3-.3.1-.3.2-.4zM176 76.4l-.1-.3-.2-.1h-.1l-.1-.1-.2-.1-.2.1-.1.1-.2.1-.1.1-.1.1-.1.1-.1.1-.1.1-.1.2h-.1l-.2.1-.1.1-.1.3-.1.1-.1.1v.4l-.1.2-.1.2v.2l-.1.1-.1.3-.1.1-.1.1-.1.3-.2.2h.3l.2.1.3.2.2.1.3.2.2.1.2.3.2.1.2.2.3.1.3.1h.7l.2-.1.3-.1.2-.3.2-.3.2-.4.2-.3.2-.4.1-.4.1-.3.1-.3v-.4l-.1-.3v-.3l-.2-.2-.2-.2-.4-.2-.4-.2zM194.8 43.7l-.2.1-.2.1-.1.1-.2.1-.3.1-.1.2-.2.1-.2.2-.2.1-.1.1-.1.2-.1.2-.2.2v.3l-.1.2.1.3-.1.2.1.4v.2l.2.3.1.3.1.1.2.3.2.2.1.1.3.1h.2l.3.1h.2l.2-.1.3-.1.3-.2v-.6l.1-.3.1-.3.2-.3-.1-.3.3-.4V44.6l-.3-.3-.1-.3-.3-.1zM176.4 70.8l-1-.7-.2.2-.2.2-.1.1v.3l-.1.2v.5l.1.3v.2l.2.3.1.2.1.2.1.3.2.2.1.2.3.2 1.6 1 .1-.3.1-.2.1-.4.1-.2-.1-.3-.1-.2-.1-.3-.1-.2-.2-.2-.1-.3-.2-.2-.1-.2-.2-.2-.2-.2-.1-.4zM210.7 20.3l-.2-.2-.1-.1-.2-.1-.1.1-.1-.1-.2.1-.2.1-.1.1-.2.1-.1.2-.2.2-.2.2-.2.2-.1.3-.1.2-.1.3-11 18.2.1.1.2.1h.7l.2-.1.1-.1.1-.1.1-.1h.2l.1-.1.1-.1zM177.7 63l-.2.3-.2.4-.2.4-.1.4v.4l-.1.4v1l.1.4v.4l.2.6.1.4.1.5.2.3.2.5.2.4h.2l.2.1h.8l.2-.1h.2l.3-.1.2-.1h.1l.2-.1.2-.1.1-.3.1-.1.1-.1-.1-.5-.1-.5-.2-.4-.2-.4-.1-.3-.2-.4-.1-.4-.2-.4-.2-.4-.2-.3-.3-.4-.2-.3-.3-.3-.3-.3-.2-.3zM180.4 56.8l-.1.4-.1.4v.4l-.1.5-.1.4v1.3l.1.5v.5l.1.4.1.5.2.4.1.4.2.5.3.3.1.2.2.3h.2l.1.1h.2l.2-.1.1-.1.2-.1.1-.1.1-.1.2-.1.1-.1.2-.1.2-.1H183.6v-1l-.1-.4v-.5l-.1-.5-.2-.5-.1-.5-.2-.4-.3-.4-.1-.4-.3-.4-.3-.4-.3-.4-.4-.2-.4-.3zM185.2 50.9l-.3.3-.3.3-.2.4-.3.3-.1.4-.2.4-.1.4v.4l-.1.4v1.3l.1.4v.4l.1.3.1.5.3.2.2.2h.1l.2.1h.3l.1-.1.2-.1h.2l.1-.1.2-.2.1-.1.2-.2.2-.1.2-.1h.4l-.1-.4.1-.4-.1-.4.1-.4-.1-.4v-.9l-.1-.3-.1-.5-.2-.2-.1-.4-.2-.4-.1-.2-.3-.4-.2-.2zM190 46.1l-.1-.1-.3.1-.2.2-.3.2-.1.2-.2.3-.1.2-.2.3-.1.2-.1.4-.1.2V48.9l-.1.3.1.4V50.2h.8l.4-.2.3-.1.3-.1.2-.4.2-.2.2-.3.1-.4v-1.1l-.1-.4-.2-.3-.1-.3zM193 41l-.1-.9V36l.1-.9V32.7l-.1-.8v-.8l-.1-.8-.1-.8-.2-.8-.1-.7-.1.9-.1.8-.1.9-.1.9v1.9l-.1.8v.9l-.1 1v.9l-.1.9v.9l.1.9-.1 1v.8l.1 1h.2l.2-.1.1-.1h.1v-.1l.1-.2.1-.1.1-.1v-.1l.1-.1.1-.1v-.4h.1zM201.6 25.9l-.7-.4-.3.5-.2.4-.4.5-.3.5-.4.5-.3.5-.3.5-.4.5-.3.5-.3.5-.2.4-.2.6-.1.5-.1.6-.1.5.1.7.2-.6.3-.5.3-.4.3-.5.3-.5.3-.5.4-.4.3-.5.3-.5.3-.5.3-.4.2-.6.3-.4.2-.5.2-.5zM174.3 61.5l.2-13.6-.9 1.4-.5 17.5.6.4.4-.5.2-.2.2-.4.1-.3v-.5l-.1-.3v-.4l-.1-.3-.1-.4-.1-.4-.1-.2-.1-.5v-.6l.1-.4zM188.5 42.8l.1-1.1-.1-1.1V35l-.1-1.1v-2.1l-.1-1.1v-1.1l-.1-1.1v-3.2l-.4 1-.2 1.1-.2 1.1-.1 1.2-.1 1.1-.1 1.2-.1 1.2.1 1.2-.1 1.2v1.2l-.1 1.3v2.4l-.2 1.3V43l-.2 1.2.7 1.1zM183.6 32.2l-.3 1.1-.2 1.1v1.1l-.1 1.1-.1 1.1-.1 1v1.2l-.1 1.2.1 1.1v1.1l-.1 1.1.1 1.1-.1 1.2-.1 1.1-.1 1.1-.1 1.2.4-.5.4-.6.2-.4.2-.7.2-.5.1-.7.1-.6v-3.5l-.1-.6v-1.4l.1-.5-.1-.6V39l.1-.5-.1-.4.1-.6-.1-.5.1-.5V36l-.1-.4.1-.5-.2-.4.1-.5-.2-.5.1-.5-.2-.4zM178.8 40.4l-.3.9-.2 1-.1 1.1-.2 1-.1 1.1-.1 1v1.2l-.1 1v1.1l.1 1.2.1 1 .1 1.1-.1 1 .2 1.1v1l.2 1 .2-1.1.2-1.1.1-1 .2-1 .1-1v-1.1l.1-1.1.1-1-.1-1 .1-1.1-.1-1.1v-2.1l-.2-1v-1.1z"></path><path fill="none" stroke="#8F4C29" stroke-width="4.762" stroke-miterlimit="22.926" d="M172.6 58.3h-6.1c0-.3-.1-.6-.1-.9 0-.2-.2-.6-.6-1.2-.4-.6-1-.9-2-.9-.6 0-1.1.2-1.6.6-.5.4-.8 1-.8 1.7 0 1 .4 1.7 1.1 2.2 1.7.7 3.5 1.4 5.4 2.2 1.9.8 3.2 1.8 4.2 2.9.9 1.3 1.4 2.9 1.4 4.7 0 1.4-.4 2.8-1.1 4-.7 1.2-1.8 2.2-3.1 3.1-1.3.8-2.7 1.3-4.1 1.3h-.8c-.7 0-1.5-.1-2.1-.4-.7-.3-1.4-.7-2.1-1.3v1h-5.3v-8.6h6.2L161 70c.1.8.4 1.4 1 1.8.5.5 1.2.7 1.9.7.1 0 .4 0 .9-.2.4-.1.8-.3 1.2-.6.3-.3.6-.6.7-1.1.1-.4.2-.8.2-1 0-.5-.1-.9-.3-1.2-.2-.3-.5-.5-.7-.6-.2-.1-.4-.2-.5-.3-1.1-.4-2.2-.8-3.1-1.3-1-.4-2.1-1-3.5-1.7-1.3-.7-2.3-1.6-2.9-2.7-.6-1.1-.9-2.4-.9-3.9v-.7c.1-.3.2-1 .3-2.1.2-1 1-2.2 2.7-3.5 1.6-1.3 3.4-2 5.5-2h1.1c.5.1.9.3 1.3.5.3.2 1 .5 1.9 1.1V50h5.1v8.3zM146 69.8c.5-.8.8-1.7.8-2.7 0-1.7-.6-2.9-1.7-3.7-1.1-.7-2.2-1.1-3.2-1.1-1.7 0-2.9.6-3.7 1.7-.7 1.1-1.1 2.2-1.1 3.1 0 1.7.6 2.9 1.7 3.7 1.1.7 2.2 1.1 3.1 1.1.8 0 1.6-.2 2.3-.5.8-.4 1.4-1 1.8-1.6zm4.4 3.5c-1 1.4-2.3 2.4-3.8 3.2-1.5.8-3.1 1.1-4.8 1.1-2.3 0-4.3-.6-5.9-1.8-1.6-1.2-2.8-2.6-3.6-4.1-.8-1.5-1.1-3.1-1.1-4.8 0-2.3.6-4.3 1.8-5.9 1.2-1.6 2.6-2.8 4.1-3.6 1.5-.8 3.1-1.1 4.8-1.1 2.4 0 4.3.6 6 1.8 1.6 1.2 2.8 2.6 3.6 4.1.8 1.5 1.1 3.1 1.1 4.8-.1 2.3-.8 4.4-2.2 6.3zm-20.1 4.1H122V65.9c0-.9-.2-1.8-.5-2.6-.4-.8-1-1.2-1.9-1.2-.6 0-1.2.1-1.8.2-.6.1-1.2.5-1.7 1.3s-.7 1.7-.7 2.7v5.5h2.2v5.6h-8.3v-11c0-1.1-.2-2-.5-2.8-.3-.8-.8-1.3-1.4-1.4-.6-.1-1.2-.2-1.8-.2-.9 0-1.6.4-2.1 1.3s-.7 1.9-.7 3.1v5.3h2.2v5.6H94.7v-5.6h2.1v-9.5h-2.1v-5.6h7.6v2.8c.8-1.1 1.6-1.9 2.6-2.5 1-.6 1.9-.9 2.9-.9 1.2 0 2.4.4 3.4 1.1 1.1.7 2 1.7 2.7 3 .7-1.3 1.7-2.4 2.9-3.1 1.2-.7 2.5-1 3.8-1 2.1 0 4 .8 5.7 2.4.6.8 1 1.7 1.3 2.7.3 1 .4 2 .4 3v7.5h2.3v5.8zM86 69.8c.5-.8.8-1.7.8-2.7 0-1.7-.6-2.9-1.7-3.7-1.1-.7-2.2-1.1-3.2-1.1-1.7 0-2.9.6-3.7 1.7-.7 1.1-1.1 2.2-1.1 3.1 0 1.7.6 2.9 1.7 3.7 1.1.7 2.2 1.1 3.1 1.1.8 0 1.6-.2 2.3-.5.7-.4 1.3-1 1.8-1.6zm4.4 3.5c-1 1.4-2.3 2.4-3.8 3.2-1.5.8-3.1 1.1-4.8 1.1-2.3 0-4.3-.6-5.9-1.8-1.6-1.2-2.8-2.6-3.6-4.1-.8-1.5-1.1-3.1-1.1-4.8 0-2.3.6-4.3 1.8-5.9 1.2-1.6 2.6-2.8 4.1-3.6 1.5-.8 3.1-1.1 4.8-1.1 2.4 0 4.3.6 6 1.8 1.6 1.2 2.8 2.6 3.6 4.1.8 1.5 1.1 3.1 1.1 4.8-.1 2.3-.8 4.4-2.2 6.3zm-22-15h-6.1c0-.3-.1-.6-.1-.9 0-.2-.2-.6-.6-1.2-.4-.6-1-.9-2-.9-.6 0-1.1.2-1.6.6-.5.4-.8 1-.8 1.7 0 1 .4 1.7 1.1 2.2 1.7.7 3.5 1.4 5.4 2.2 1.9.8 3.2 1.8 4.2 2.9.9 1.3 1.4 2.9 1.4 4.7 0 1.4-.4 2.8-1.1 4-.7 1.2-1.8 2.2-3.1 3.1-1.3.8-2.7 1.3-4.1 1.3h-.8c-.7 0-1.5-.1-2.1-.4-.7-.3-1.4-.7-2.1-1.3v1h-5.3v-8.6h6.2l.1 1.1c.1.8.4 1.4 1 1.8.5.5 1.2.7 1.9.7.1 0 .4 0 .9-.2.4-.1.8-.3 1.2-.6.3-.3.6-.6.7-1.1.1-.4.2-.8.2-1 0-.5-.1-.9-.3-1.2-.2-.3-.5-.5-.7-.6-.2-.1-.4-.2-.5-.3-1.1-.4-2.2-.8-3.1-1.3-1-.4-2.1-1-3.5-1.7-1.8-.3-2.7-1.2-3.3-2.3-.6-1.1-.9-2.4-.9-3.9v-.7c.1-.3.2-1 .3-2.1.2-1 1-2.2 2.7-3.5 1.6-1.3 3.4-2 5.5-2h1.1c.5.1.9.3 1.3.5.3.2 1 .5 1.9 1.1v-1.2h5.1v8.1z"></path><path fill="#FFF" d="M172.6 58.3h-6.1c0-.3-.1-.6-.1-.9 0-.2-.2-.6-.6-1.2-.4-.6-1-.9-2-.9-.6 0-1.1.2-1.6.6-.5.4-.8 1-.8 1.7 0 1 .4 1.7 1.1 2.2 1.7.7 3.5 1.4 5.4 2.2 1.9.8 3.2 1.8 4.2 2.9.9 1.3 1.4 2.9 1.4 4.7 0 1.4-.4 2.8-1.1 4-.7 1.2-1.8 2.2-3.1 3.1-1.3.8-2.7 1.3-4.1 1.3h-.8c-.7 0-1.5-.1-2.1-.4-.7-.3-1.4-.7-2.1-1.3v1h-5.3v-8.6h6.2L161 70c.1.8.4 1.4 1 1.8.5.5 1.2.7 1.9.7.1 0 .4 0 .9-.2.4-.1.8-.3 1.2-.6.3-.3.6-.6.7-1.1.1-.4.2-.8.2-1 0-.5-.1-.9-.3-1.2-.2-.3-.5-.5-.7-.6-.2-.1-.4-.2-.5-.3-1.1-.4-2.2-.8-3.1-1.3-1-.4-2.1-1-3.5-1.7-1.3-.7-2.3-1.6-2.9-2.7-.6-1.1-.9-2.4-.9-3.9v-.7c.1-.3.2-1 .3-2.1.2-1 1-2.2 2.7-3.5 1.6-1.3 3.4-2 5.5-2h1.1c.5.1.9.3 1.3.5.3.2 1 .5 1.9 1.1V50h5.1v8.3zM146 69.8c.5-.8.8-1.7.8-2.7 0-1.7-.6-2.9-1.7-3.7-1.1-.7-2.2-1.1-3.2-1.1-1.7 0-2.9.6-3.7 1.7-.7 1.1-1.1 2.2-1.1 3.1 0 1.7.6 2.9 1.7 3.7 1.1.7 2.2 1.1 3.1 1.1.8 0 1.6-.2 2.3-.5.8-.4 1.4-1 1.8-1.6zm4.4 3.5c-1 1.4-2.3 2.4-3.8 3.2-1.5.8-3.1 1.1-4.8 1.1-2.3 0-4.3-.6-5.9-1.8-1.6-1.2-2.8-2.6-3.6-4.1-.8-1.5-1.1-3.1-1.1-4.8 0-2.3.6-4.3 1.8-5.9 1.2-1.6 2.6-2.8 4.1-3.6 1.5-.8 3.1-1.1 4.8-1.1 2.4 0 4.3.6 6 1.8 1.6 1.2 2.8 2.6 3.6 4.1.8 1.5 1.1 3.1 1.1 4.8-.1 2.3-.8 4.4-2.2 6.3zm-20.1 4.1H122V65.9c0-.9-.2-1.8-.5-2.6-.4-.8-1-1.2-1.9-1.2-.6 0-1.2.1-1.8.2-.6.1-1.2.5-1.7 1.3s-.7 1.7-.7 2.7v5.5h2.2v5.6h-8.3v-11c0-1.1-.2-2-.5-2.8-.3-.8-.8-1.3-1.4-1.4-.6-.1-1.2-.2-1.8-.2-.9 0-1.6.4-2.1 1.3s-.7 1.9-.7 3.1v5.3h2.2v5.6H94.7v-5.6h2.1v-9.5h-2.1v-5.6h7.6v2.8c.8-1.1 1.6-1.9 2.6-2.5 1-.6 1.9-.9 2.9-.9 1.2 0 2.4.4 3.4 1.1 1.1.7 2 1.7 2.7 3 .7-1.3 1.7-2.4 2.9-3.1 1.2-.7 2.5-1 3.8-1 2.1 0 4 .8 5.7 2.4.6.8 1 1.7 1.3 2.7.3 1 .4 2 .4 3v7.5h2.3v5.8zM86 69.8c.5-.8.8-1.7.8-2.7 0-1.7-.6-2.9-1.7-3.7-1.1-.7-2.2-1.1-3.2-1.1-1.7 0-2.9.6-3.7 1.7-.7 1.1-1.1 2.2-1.1 3.1 0 1.7.6 2.9 1.7 3.7 1.1.7 2.2 1.1 3.1 1.1.8 0 1.6-.2 2.3-.5.7-.4 1.3-1 1.8-1.6zm4.4 3.5c-1 1.4-2.3 2.4-3.8 3.2-1.5.8-3.1 1.1-4.8 1.1-2.3 0-4.3-.6-5.9-1.8-1.6-1.2-2.8-2.6-3.6-4.1-.8-1.5-1.1-3.1-1.1-4.8 0-2.3.6-4.3 1.8-5.9 1.2-1.6 2.6-2.8 4.1-3.6s3.1-1.1 4.8-1.1c2.4 0 4.3.6 6 1.8 1.6 1.2 2.8 2.6 3.6 4.1.8 1.5 1.1 3.1 1.1 4.8-.1 2.3-.8 4.4-2.2 6.3zm-22-15h-6.1c0-.3-.1-.6-.1-.9 0-.2-.2-.6-.6-1.2-.4-.6-1-.9-2-.9-.6 0-1.1.2-1.6.6-.5.4-.8 1-.8 1.7 0 1 .4 1.7 1.1 2.2 1.7.7 3.5 1.4 5.4 2.2 1.9.8 3.2 1.8 4.2 2.9.9 1.3 1.4 2.9 1.4 4.7 0 1.4-.4 2.8-1.1 4-.7 1.2-1.8 2.2-3.1 3.1-1.3.8-2.7 1.3-4.1 1.3h-.8c-.7 0-1.5-.1-2.1-.4-.7-.3-1.4-.7-2.1-1.3v1h-5.3v-8.6h6.2l.1 1.1c.1.8.4 1.4 1 1.8.5.5 1.2.7 1.9.7.1 0 .4 0 .9-.2.4-.1.8-.3 1.2-.6.3-.3.6-.6.7-1.1.1-.4.2-.8.2-1 0-.5-.1-.9-.3-1.2-.2-.3-.5-.5-.7-.6-.2-.1-.4-.2-.5-.3-1.1-.4-2.2-.8-3.1-1.3-1-.4-2.1-1-3.5-1.7-1.8-.3-2.7-1.2-3.3-2.3-.6-1.1-.9-2.4-.9-3.9v-.7c.1-.3.2-1 .3-2.1.2-1 1-2.2 2.7-3.5 1.6-1.3 3.4-2 5.5-2h1.1c.5.1.9.3 1.3.5.3.2 1 .5 1.9 1.1v-1.2h5.1v8.1z"></path><path fill="none" stroke="#8F4C29" stroke-width="4.762" stroke-miterlimit="22.926" d="M217.6 79.2h-6.1c0-.3-.1-.6-.1-.9 0-.2-.2-.6-.6-1.2-.4-.6-1-.9-2-.9-.6 0-1.1.2-1.6.6-.5.4-.8 1-.8 1.7 0 1 .4 1.7 1.1 2.2 1.7.7 3.5 1.4 5.4 2.2 1.9.8 3.2 1.8 4.2 2.9.9 1.3 1.4 2.9 1.4 4.7 0 1.4-.4 2.8-1.1 4-.7 1.2-1.8 2.2-3.1 3.1-1.3.8-2.7 1.3-4.1 1.3h-.8c-.7 0-1.5-.1-2.1-.4-.7-.3-1.4-.7-2.1-1.3v1h-5.3v-8.6h6.2l.1 1.1c.1.8.4 1.4 1 1.8.5.5 1.2.7 1.9.7.1 0 .4-.1.9-.2.4-.1.8-.3 1.2-.6.3-.3.6-.6.7-1.1.1-.4.2-.8.2-1 0-.5-.1-.9-.3-1.2-.2-.3-.5-.5-.7-.6-.2-.1-.4-.2-.5-.3-1.1-.4-2.2-.8-3.1-1.3-1-.4-2.1-1-3.5-1.7-1.3-.7-2.3-1.6-2.9-2.7-.6-1.1-.9-2.4-.9-3.9v-.7c.1-.3.2-1 .3-2.1.2-1 1-2.2 2.7-3.5 1.6-1.3 3.4-2 5.5-2h1.1c.5.1.9.3 1.3.5.3.2 1 .5 1.9 1.1v-1.2h5.1v8.5zm-26.5 11.5c.5-.8.8-1.7.8-2.7 0-1.7-.6-2.9-1.7-3.7-1.1-.7-2.2-1.1-3.2-1.1-1.7 0-2.9.6-3.7 1.7-.7 1.1-1.1 2.2-1.1 3.1 0 1.7.6 2.9 1.7 3.7 1.1.7 2.2 1.1 3.1 1.1.8 0 1.6-.2 2.3-.5.7-.4 1.3-.9 1.8-1.6zm4.4 3.6c-1 1.4-2.3 2.4-3.8 3.2-1.5.8-3.1 1.1-4.8 1.1-2.3 0-4.3-.6-5.9-1.8-1.6-1.2-2.8-2.6-3.6-4.1-.8-1.5-1.1-3.1-1.1-4.8 0-2.3.6-4.3 1.8-5.9 1.2-1.6 2.6-2.8 4.1-3.6 1.5-.8 3.1-1.1 4.8-1.1 2.4 0 4.3.6 6 1.8 1.6 1.2 2.8 2.6 3.6 4.1.8 1.5 1.1 3.1 1.1 4.8-.1 2.3-.8 4.4-2.2 6.3zm-20.7-10.6c-1.1.1-1.8.3-2.3.4-.4.1-1 .5-1.5 1-.6.5-1 1.1-1.2 1.7-.2.6-.3 1.3-.3 2.2v3.8h2.2v5.6h-10.4v-5.6h2.1v-9.5h-2.1v-5.6h7.7v3.1c.7-1 1.5-1.8 2.5-2.3.9-.5 2.1-.9 3.4-1v6.2zm-21.2 2.2c-.5-1.1-1.2-1.9-2.1-2.4-.9-.6-1.9-.8-3-.8s-2 .3-2.9.8c-.9.5-1.6 1.4-2 2.5h10zm5.6 3l-.3 1.6h-15.3c1.1 2.2 2.8 3.3 5.1 3.3 1.3 0 2.5-.5 3.5-1.5h6.3c-.8 1.9-2.1 3.6-3.9 4.9-1.8 1.3-3.8 1.9-5.9 1.9-3 0-5.6-1.1-7.7-3.4-2.1-2.2-3.2-4.8-3.2-7.6s1-5.3 3.1-7.5c2-2.2 4.5-3.3 7.4-3.3 3 0 5.6 1.1 7.7 3.2 2.1 2.1 3.2 4.6 3.2 7.5V88.9zM137 91.1c-.7 2.4-2 4.3-4 5.7-2 1.4-4.3 2.1-6.7 2.1-3 0-5.5-1.2-7.5-3.5s-3-5.1-3-8.2c.3-2.7 1.4-5.1 3.3-7.1s4.2-3 6.8-3c1.8 0 3.5.7 5.1 2.1v-1.5h5.2v7.4h-5.7c-.5-.6-1.2-1.1-1.9-1.5-.7-.3-1.5-.5-2.3-.5-1.1 0-2.1.4-3.1 1.3-.9.9-1.4 2-1.4 3.3 0 1.4.4 2.6 1.2 3.6.8 1 1.9 1.6 3.3 1.6.9 0 1.7-.1 2.4-.4.7-.3 1.2-.7 1.5-1.5h6.8zm-28.6-5.2c-.5-1.1-1.2-1.9-2.1-2.4-.9-.6-1.9-.8-3-.8s-2 .3-2.9.8c-.9.5-1.6 1.4-2 2.5h10zm5.6 3l-.3 1.6H98.4c1.1 2.2 2.8 3.3 5.1 3.3 1.3 0 2.5-.5 3.5-1.5h6.3c-.8 1.9-2.1 3.6-3.9 4.9-1.8 1.3-3.8 1.9-5.9 1.9-3 0-5.6-1.1-7.7-3.4-2.1-2.2-3.2-4.8-3.2-7.6s1-5.3 3.1-7.5c2-2.2 4.5-3.3 7.4-3.3 3 0 5.6 1.1 7.7 3.2 2.1 2.1 3.2 4.6 3.2 7.5V88.9zm-22-5.6h-1.9l-5.8 15H78l-5.7-15h-1.9v-5.6h9.7v5.6H79l2.1 7.4 2.5-7.4h-1.2v-5.6H92v5.6zm-22.8.4c-1.1.1-1.8.3-2.3.4-.4.1-1 .5-1.5 1-.6.5-1 1.1-1.2 1.7-.2.6-.3 1.3-.3 2.2v3.8H66v5.6H55.7v-5.6h2.1v-9.5h-2.1v-5.6h7.7v3.1c.7-1 1.5-1.8 2.5-2.3.9-.5 2.1-.9 3.4-1v6.2zm-21.3 2.2c-.5-1.1-1.2-1.9-2.1-2.4-.9-.6-1.9-.8-3-.8s-2 .3-2.9.8c-.9.5-1.6 1.4-2 2.5h10zm5.6 3l-.3 1.6H38c1.1 2.2 2.8 3.3 5.1 3.3 1.3 0 2.5-.5 3.5-1.5h6.3c-.8 1.9-2.1 3.6-3.9 4.9-1.9 1.2-3.9 1.8-6 1.8-3 0-5.6-1.1-7.7-3.4-2.1-2.2-3.2-4.8-3.2-7.6s1-5.3 3.1-7.5c2-2.2 4.5-3.3 7.4-3.3 3 0 5.6 1.1 7.7 3.2 2.1 2.1 3.2 4.6 3.2 7.5v1zm-23.3-.7c-.9 3.2-2.6 5.8-5.2 7.7-2.6 1.9-5.6 2.9-8.9 2.9-3.6 0-6.8-1.4-9.6-4.3-2.7-2.9-4.1-6-4.1-9.5 0-3.9 1.4-7.2 4.1-10.1 2.8-2.9 6-4.3 9.8-4.3.5 0 1.2.1 2.1.2.8.1 1.7.4 2.7.9.9.5 1.9 1.1 2.8 1.9v-2.5h5.5v10h-6.5c-.7-1.2-1.6-2.1-2.8-2.8-1.2-.6-2.5-1-3.8-1-1.2 0-2.3.3-3.3.8s-1.9 1.3-2.6 2.3c-.7 1.2-1.1 2.6-1.1 4 0 1.3.3 2.5.8 3.6.6 1.1 1.4 2 2.6 2.7 1.2.7 2.4 1.1 3.8 1.1 1.3 0 2.5-.3 3.7-.9 1.1-.6 2-1.5 2.8-2.7h7.2z"></path><path fill="#FFF" d="M217.6 79.2h-6.1c0-.3-.1-.6-.1-.9 0-.2-.2-.6-.6-1.2-.4-.6-1-.9-2-.9-.6 0-1.1.2-1.6.6-.5.4-.8 1-.8 1.7 0 1 .4 1.7 1.1 2.2 1.7.7 3.5 1.4 5.4 2.2 1.9.8 3.2 1.8 4.2 2.9.9 1.3 1.4 2.9 1.4 4.7 0 1.4-.4 2.8-1.1 4-.7 1.2-1.8 2.2-3.1 3.1-1.3.8-2.7 1.3-4.1 1.3h-.8c-.7 0-1.5-.1-2.1-.4-.7-.3-1.4-.7-2.1-1.3v1h-5.3v-8.6h6.2l.1 1.1c.1.8.4 1.4 1 1.8.5.5 1.2.7 1.9.7.1 0 .4-.1.9-.2.4-.1.8-.3 1.2-.6.3-.3.6-.6.7-1.1.1-.4.2-.8.2-1 0-.5-.1-.9-.3-1.2-.2-.3-.5-.5-.7-.6-.2-.1-.4-.2-.5-.3-1.1-.4-2.2-.8-3.1-1.3-1-.4-2.1-1-3.5-1.7-1.3-.7-2.3-1.6-2.9-2.7-.6-1.1-.9-2.4-.9-3.9v-.7c.1-.3.2-1 .3-2.1.2-1 1-2.2 2.7-3.5 1.6-1.3 3.4-2 5.5-2h1.1c.5.1.9.3 1.3.5.3.2 1 .5 1.9 1.1v-1.2h5.1v8.5zm-26.5 11.5c.5-.8.8-1.7.8-2.7 0-1.7-.6-2.9-1.7-3.7-1.1-.7-2.2-1.1-3.2-1.1-1.7 0-2.9.6-3.7 1.7-.7 1.1-1.1 2.2-1.1 3.1 0 1.7.6 2.9 1.7 3.7 1.1.7 2.2 1.1 3.1 1.1.8 0 1.6-.2 2.3-.5.7-.4 1.3-.9 1.8-1.6zm4.4 3.6c-1 1.4-2.3 2.4-3.8 3.2-1.5.8-3.1 1.1-4.8 1.1-2.3 0-4.3-.6-5.9-1.8-1.6-1.2-2.8-2.6-3.6-4.1-.8-1.5-1.1-3.1-1.1-4.8 0-2.3.6-4.3 1.8-5.9 1.2-1.6 2.6-2.8 4.1-3.6 1.5-.8 3.1-1.1 4.8-1.1 2.4 0 4.3.6 6 1.8 1.6 1.2 2.8 2.6 3.6 4.1.8 1.5 1.1 3.1 1.1 4.8-.1 2.3-.8 4.4-2.2 6.3zm-20.7-10.6c-1.1.1-1.8.3-2.3.4-.4.1-1 .5-1.5 1-.6.5-1 1.1-1.2 1.7-.2.6-.3 1.3-.3 2.2v3.8h2.2v5.6h-10.4v-5.6h2.1v-9.5h-2.1v-5.6h7.7v3.1c.7-1 1.5-1.8 2.5-2.3.9-.5 2.1-.9 3.4-1v6.2zm-21.2 2.2c-.5-1.1-1.2-1.9-2.1-2.4-.9-.6-1.9-.8-3-.8s-2 .3-2.9.8c-.9.5-1.6 1.4-2 2.5h10zm5.6 3l-.3 1.6h-15.3c1.1 2.2 2.8 3.3 5.1 3.3 1.3 0 2.5-.5 3.5-1.5h6.3c-.8 1.9-2.1 3.6-3.9 4.9-1.8 1.3-3.8 1.9-5.9 1.9-3 0-5.6-1.1-7.7-3.4-2.1-2.2-3.2-4.8-3.2-7.6s1-5.3 3.1-7.5c2-2.2 4.5-3.3 7.4-3.3 3 0 5.6 1.1 7.7 3.2 2.1 2.1 3.2 4.6 3.2 7.5V88.9zM137 91.1c-.7 2.4-2 4.3-4 5.7-2 1.4-4.3 2.1-6.7 2.1-3 0-5.5-1.2-7.5-3.5s-3-5.1-3-8.2c.3-2.7 1.4-5.1 3.3-7.1s4.2-3 6.8-3c1.8 0 3.5.7 5.1 2.1v-1.5h5.2v7.4h-5.7c-.5-.6-1.2-1.1-1.9-1.5-.7-.3-1.5-.5-2.3-.5-1.1 0-2.1.4-3.1 1.3-.9.9-1.4 2-1.4 3.3 0 1.4.4 2.6 1.2 3.6.8 1 1.9 1.6 3.3 1.6.9 0 1.7-.1 2.4-.4.7-.3 1.2-.7 1.5-1.5h6.8zm-28.6-5.2c-.5-1.1-1.2-1.9-2.1-2.4-.9-.6-1.9-.8-3-.8s-2 .3-2.9.8c-.9.5-1.6 1.4-2 2.5h10zm5.6 3l-.3 1.6H98.4c1.1 2.2 2.8 3.3 5.1 3.3 1.3 0 2.5-.5 3.5-1.5h6.3c-.8 1.9-2.1 3.6-3.9 4.9-1.8 1.3-3.8 1.9-5.9 1.9-3 0-5.6-1.1-7.7-3.4-2.1-2.2-3.2-4.8-3.2-7.6s1-5.3 3.1-7.5c2-2.2 4.5-3.3 7.4-3.3 3 0 5.6 1.1 7.7 3.2 2.1 2.1 3.2 4.6 3.2 7.5V88.9zm-22-5.6h-1.9l-5.8 15H78l-5.7-15h-1.9v-5.6h9.7v5.6H79l2.1 7.4 2.5-7.4h-1.2v-5.6H92v5.6zm-22.8.4c-1.1.1-1.8.3-2.3.4-.4.1-1 .5-1.5 1-.6.5-1 1.1-1.2 1.7-.2.6-.3 1.3-.3 2.2v3.8H66v5.6H55.7v-5.6h2.1v-9.5h-2.1v-5.6h7.7v3.1c.7-1 1.5-1.8 2.5-2.3.9-.5 2.1-.9 3.4-1v6.2zm-21.3 2.2c-.5-1.1-1.2-1.9-2.1-2.4-.9-.6-1.9-.8-3-.8s-2 .3-2.9.8c-.9.5-1.6 1.4-2 2.5h10zm5.6 3l-.3 1.6H38c1.1 2.2 2.8 3.3 5.1 3.3 1.3 0 2.5-.5 3.5-1.5h6.3c-.8 1.9-2.1 3.6-3.9 4.9-1.9 1.2-3.9 1.8-6 1.8-3 0-5.6-1.1-7.7-3.4-2.1-2.2-3.2-4.8-3.2-7.6s1-5.3 3.1-7.5c2-2.2 4.5-3.3 7.4-3.3 3 0 5.6 1.1 7.7 3.2 2.1 2.1 3.2 4.6 3.2 7.5v1zm-23.3-.7c-.9 3.2-2.6 5.8-5.2 7.7-2.6 1.9-5.6 2.9-8.9 2.9-3.6 0-6.8-1.4-9.6-4.3-2.7-2.9-4.1-6-4.1-9.5 0-3.9 1.4-7.2 4.1-10.1 2.8-2.9 6-4.3 9.8-4.3.5 0 1.2.1 2.1.2.8.1 1.7.4 2.7.9.9.5 1.9 1.1 2.8 1.9v-2.5h5.5v10h-6.5c-.7-1.2-1.6-2.1-2.8-2.8-1.2-.6-2.5-1-3.8-1-1.2 0-2.3.3-3.3.8s-1.9 1.3-2.6 2.3c-.7 1.2-1.1 2.6-1.1 4 0 1.3.3 2.5.8 3.6.6 1.1 1.4 2 2.6 2.7 1.2.7 2.4 1.1 3.8 1.1 1.3 0 2.5-.3 3.7-.9 1.1-.6 2-1.5 2.8-2.7h7.2z"></path></svg>